<svg width="36" height="25" viewBox="0 0 36 25" fill="none" xmlns="http://www.w3.org/2000/svg">
<g clip-path="url(#clip0_30_616)">
<path d="M9.3125 1.67186H36V4.42811H9.3125V1.67186ZM9.3125 11.0562H36V13.8125H9.3125V11.0562ZM9.3125 20.5937H36V23.35H9.3125V20.5937ZM3.73438 0.468738C4.43855 0.451046 5.12116 0.712466 5.63338 1.196C6.1456 1.67953 6.44588 2.34596 6.46875 3.04999C6.44026 3.75016 6.13752 4.41102 5.62592 4.88989C5.11432 5.36875 4.4349 5.62717 3.73438 5.60936C3.03385 5.62717 2.35443 5.36875 1.84283 4.88989C1.33123 4.41102 1.02849 3.75016 1 3.04999C1.02287 2.34596 1.32315 1.67953 1.83537 1.196C2.34759 0.712466 3.0302 0.451046 3.73438 0.468738ZM3.73438 9.87499C4.09184 9.84198 4.45226 9.88389 4.79261 9.99805C5.13297 10.1122 5.44576 10.2961 5.71102 10.538C5.97628 10.7799 6.18816 11.0745 6.33314 11.4029C6.47812 11.7313 6.553 12.0863 6.553 12.4453C6.553 12.8043 6.47812 13.1593 6.33314 13.4877C6.18816 13.8161 5.97628 14.1107 5.71102 14.3526C5.44576 14.5945 5.13297 14.7784 4.79261 14.8925C4.45226 15.0067 4.09184 15.0486 3.73438 15.0156C3.37691 15.0486 3.01649 15.0067 2.67614 14.8925C2.33578 14.7784 2.02299 14.5945 1.75773 14.3526C1.49247 14.1107 1.28059 13.8161 1.13561 13.4877C0.990634 13.1593 0.915753 12.8043 0.915753 12.4453C0.915753 12.0863 0.990634 11.7313 1.13561 11.4029C1.28059 11.0745 1.49247 10.7799 1.75773 10.538C2.02299 10.2961 2.33578 10.1122 2.67614 9.99805C3.01649 9.88389 3.37691 9.84198 3.73438 9.87499ZM3.73438 19.3906C4.09184 19.3576 4.45226 19.3995 4.79261 19.5137C5.13297 19.6278 5.44576 19.8117 5.71102 20.0536C5.97628 20.2955 6.18816 20.5901 6.33314 20.9185C6.47812 21.2469 6.553 21.6019 6.553 21.9609C6.553 22.3199 6.47812 22.675 6.33314 23.0034C6.18816 23.3318 5.97628 23.6263 5.71102 23.8682C5.44576 24.1101 5.13297 24.294 4.79261 24.4082C4.45226 24.5223 4.09184 24.5643 3.73438 24.5312C3.37691 24.5643 3.01649 24.5223 2.67614 24.4082C2.33578 24.294 2.02299 24.1101 1.75773 23.8682C1.49247 23.6263 1.28059 23.3318 1.13561 23.0034C0.990634 22.675 0.915753 22.3199 0.915753 21.9609C0.915753 21.6019 0.990634 21.2469 1.13561 20.9185C1.28059 20.5901 1.49247 20.2955 1.75773 20.0536C2.02299 19.8117 2.33578 19.6278 2.67614 19.5137C3.01649 19.3995 3.37691 19.3576 3.73438 19.3906Z" fill="black"/>
</g>
<defs>
<clipPath id="clip0_30_616">
<rect width="36" height="25" fill="white"/>
</clipPath>
</defs>
</svg>
