<svg width="30" height="30" viewBox="0 0 30 30" fill="none" xmlns="http://www.w3.org/2000/svg">
<g clip-path="url(#clip0_30_612)">
<path d="M22.0163 19.3951C23.8318 16.9176 24.645 13.846 24.2931 10.7947C23.9412 7.74346 22.4501 4.93758 20.1183 2.93844C17.7865 0.939293 14.7858 -0.105677 11.7166 0.0125852C8.64736 0.130847 5.73598 1.40362 3.56488 3.57627C1.39379 5.74892 0.1231 8.66121 0.00703378 11.7305C-0.109032 14.7998 0.938085 17.7997 2.93889 20.1302C4.9397 22.4606 7.74665 23.9496 10.7982 24.2993C13.8497 24.649 16.9207 23.8336 19.3969 22.0163H19.395C19.4513 22.0913 19.5113 22.1626 19.5788 22.2319L26.7975 29.4507C27.1491 29.8025 27.626 30.0003 28.1234 30.0004C28.6208 30.0006 29.0979 29.8032 29.4497 29.4516C29.8015 29.1001 29.9993 28.6231 29.9994 28.1257C29.9996 27.6283 29.8022 27.1513 29.4506 26.7994L22.2319 19.5807C22.1648 19.5128 22.0928 19.452 22.0163 19.3951ZM22.5 12.1876C22.5 13.5418 22.2333 14.8828 21.715 16.134C21.1968 17.3852 20.4371 18.522 19.4795 19.4796C18.5219 20.4372 17.3851 21.1968 16.1339 21.7151C14.8828 22.2333 13.5418 22.5001 12.1875 22.5001C10.8332 22.5001 9.49225 22.2333 8.24108 21.7151C6.98991 21.1968 5.85307 20.4372 4.89547 19.4796C3.93786 18.522 3.17825 17.3852 2.66 16.134C2.14175 14.8828 1.875 13.5418 1.875 12.1876C1.87501 9.45252 2.9615 6.8295 4.89547 4.89553C6.82943 2.96156 9.45246 1.87507 12.1875 1.87507C14.9225 1.87507 17.5456 2.96156 19.4795 4.89553C21.4135 6.8295 22.5 9.45252 22.5 12.1876Z" fill="#A0A0A0"/>
</g>
<defs>
<clipPath id="clip0_30_612">
<rect width="30" height="30" fill="white"/>
</clipPath>
</defs>
</svg>
