<svg width="25" height="25" viewBox="0 0 25 25" fill="none" xmlns="http://www.w3.org/2000/svg">
<g clip-path="url(#clip0_30_612)">
<path d="M18.3469 16.1627C19.8598 14.0981 20.5375 11.5384 20.2442 8.9957C19.951 6.45298 18.7085 4.11475 16.7653 2.4488C14.8221 0.782846 12.3215 -0.0879624 9.7638 0.0105894C7.20613 0.109141 4.77997 1.16979 2.97073 2.98032C1.16149 4.79086 0.102578 7.21778 0.0058564 9.77552C-0.0908652 12.3333 0.781732 14.8332 2.44907 16.7752C4.11642 18.7172 6.45554 19.9581 8.99847 20.2495C11.5414 20.5409 14.1006 19.8615 16.1641 18.347H16.1625C16.2094 18.4095 16.2594 18.4689 16.3156 18.5267L22.3312 24.5423C22.6242 24.8355 23.0217 25.0003 23.4362 25.0005C23.8506 25.0006 24.2482 24.8361 24.5414 24.5431C24.8346 24.2501 24.9994 23.8527 24.9995 23.4382C24.9997 23.0237 24.8352 22.6262 24.5422 22.333L18.5266 16.3173C18.4707 16.2608 18.4106 16.2101 18.3469 16.1627ZM18.75 10.1564C18.75 11.285 18.5277 12.4025 18.0958 13.4451C17.664 14.4877 17.031 15.4351 16.2329 16.2331C15.4349 17.0311 14.4876 17.6641 13.4449 18.096C12.4023 18.5279 11.2848 18.7502 10.1562 18.7502C9.0277 18.7502 7.91021 18.5279 6.86756 18.096C5.82492 17.6641 4.87755 17.0311 4.07955 16.2331C3.28155 15.4351 2.64854 14.4877 2.21666 13.4451C1.78478 12.4025 1.5625 11.285 1.5625 10.1564C1.5625 7.8772 2.46791 5.69135 4.07955 4.07971C5.69119 2.46807 7.87705 1.56266 10.1562 1.56266C12.4355 1.56266 14.6213 2.46807 16.2329 4.07971C17.8446 5.69135 18.75 7.8772 18.75 10.1564Z" fill="#1E20FA"/>
</g>
<defs>
<clipPath id="clip0_30_612">
<rect width="25" height="25" fill="white"/>
</clipPath>
</defs>
</svg>
